<?xml version="1.0" encoding="UTF-8"?>
<svg id="Layer_2" data-name="Layer 2" xmlns="http://www.w3.org/2000/svg" viewBox="0 0 699.07 683.52">
  <g id="Layer_5_copy" data-name="Layer 5 copy">
    <path d="M0,0v683.52h699.07V0H0ZM407.64,322.64v17.01h-8.58v-17.01h-32.39v-22.78h-.71v-8.58h.71v-54.82h-.71v-8.58h.71v-31.38h78.36v-17.9h8.58v17.9h46.17v31.38h21.29v8.58h-21.29v86.19h-46.17v11.06h-8.58v-11.06h-37.39ZM361.34,121.6h5.33v-40.59h-5.33v-8.58h5.33v-34.13h63.64v-19.11h8.58v19.11h60.89v34.13h16.67v8.58h-16.67v40.59h16.67v8.58h-16.67v34.27h-60.89v9.85h-8.58v-9.85h-63.64v-34.27h-5.33v-8.58ZM361.34,389.91h5.33v-35.23h86.94v-14.48h8.58v14.48h37.59v35.23h16.67v8.58h-16.67v82.34h-37.59v14.48h-8.58v-14.48h-45.97v28.96h-8.58v-28.96h-32.39v-28.88h-42.4v-8.58h42.4v-44.88h-5.33v-8.58ZM198.2,63.52h4.18v-25.22h44.28v-14.48h8.58v14.48h80.25v25.22h17.82v8.58h-17.82v49.5h17.82v8.58h-17.82v34.27h-80.25v14.48h-8.58v-14.48h-44.28v-92.35h-4.18v-8.58ZM198.2,227.87h4.18v-31.38h29.46v-22.19h8.58v22.19h57.42v-16.8h8.58v16.8h29.07v31.38h17.82v8.58h-17.82v86.19h-29.07v12.16h-8.58v-12.16h-57.42v6.77h-8.58v-6.77h-29.46v-86.19h-4.18v-8.58ZM173.23,550.4h-6.05v44.17h6.05v8.58h-6.05v35.86h-62.92v11.4h-8.58v-11.4h-61.6v-35.86h-15.95v-8.58h15.95v-44.17h-15.95v-8.58h15.95v-28.96h61.6v-17.56h8.58v17.56h62.92v28.96h6.05v8.58ZM173.23,407.07h-6.05v32.01h6.05v8.58h-6.05v33.17h-67.21v9.08h-8.58v-9.08h-57.31v-73.76h-15.95v-8.58h15.95v-43.81h57.31v-19.88h8.58v19.88h67.21v43.81h6.05v8.58ZM176.09,270.67h-8.91v51.96h-41.25v21.3h-8.58v-21.3h-48.18v14.48h-8.58v-14.48h-26.51v-51.96h-13.09v-8.58h13.09v-65.6h26.51v-14.48h8.58v14.48h48.18v-7.66h8.58v7.66h41.25v65.6h8.91v8.58ZM176.09,85.3h-8.91v79.15h-76.23v14.48h-8.58v-14.48h-48.29v-79.15h-13.09v-8.58h13.09v-38.42h48.29v-14.48h8.58v14.48h76.23v38.42h8.91v8.58ZM184.95,439.08h17.43v-44.88h-17.43v-8.58h17.43v-30.94h48.57v30.94h36.35v8.58h-36.35v44.88h36.35v8.58h-36.35v33.17h-48.57v-33.17h-17.43v-8.58ZM273.22,648.97h-8.58v-9.96h-62.26v-80.03h-11v-8.58h11v-37.54h33.52v-17.56h8.58v17.56h44.88v-17.56h8.58v17.56h37.54v37.54h11v8.58h-11v80.03h-62.26v9.96ZM507.86,550.4h-8.09v88.61h-20.08v14.48h-8.58v-14.48h-47.21v4.63h-8.58v-4.63h-48.66v-27.34h-26.13v-8.58h26.13v-52.69h-13.91v-8.58h13.91v-28.96h48.66v-24.32h8.58v24.32h47.21v-14.48h8.58v14.48h20.08v28.96h8.09v8.58ZM516.44,418.1h17.27v-63.42h34.98v-17.56h8.58v17.56h43.56v-17.56h8.58v17.56h37.4v63.42h4.73v8.58h-4.73v54.15h-37.4v11.4h-8.58v-11.4h-43.56v11.4h-8.58v-11.4h-34.98v-54.15h-17.27v-8.58ZM683.54,561.62h-16.72v37.18h8.91v8.58h-8.91v31.63h-93.83v22.8h-8.58v-22.8h-30.69v-31.63h-5.28v-8.58h5.28v-37.18h-5.28v-8.58h5.28v-40.18h30.69v-6.16h8.58v6.16h93.83v40.18h16.72v8.58ZM683.54,101.03h-16.72v63.42h-41.69v14.14h-8.58v-14.14h-34.98v14.48h-4.29v17.56h18.7v-14.48h8.58v14.48h62.26v58.78h4.73v8.58h-4.73v58.78h-62.26v14.48h-8.58v-14.48h-62.26v-58.78h-17.27v-8.58h17.27v-58.78h34.98v-17.9h4.29v-14.14h-39.27v-63.42h-5.28v-8.58h5.28v-54.15h82.83v-14.82h8.58v14.82h41.69v54.15h16.72v8.58Z"/>
    <rect x="167.18" y="76.72" width="8.91" height="8.58"/>
    <rect x="20.98" y="76.72" width="13.09" height="8.58"/>
    <rect x="90.94" y="76.72" width="76.23" height="8.58"/>
    <rect x="34.07" y="76.72" width="48.29" height="8.58"/>
    <rect x="167.18" y="262.09" width="8.91" height="8.58"/>
    <rect x="20.98" y="262.09" width="13.09" height="8.58"/>
    <rect x="69.16" y="262.09" width="48.18" height="8.58"/>
    <rect x="125.93" y="262.09" width="41.25" height="8.58"/>
    <rect x="34.07" y="262.09" width="26.51" height="8.58"/>
    <rect x="365.96" y="227.87" width=".71" height="8.58"/>
    <rect x="499.78" y="227.87" width="21.29" height="8.58"/>
    <rect x="366.67" y="227.87" width="78.36" height="8.58"/>
    <rect x="453.61" y="227.87" width="46.17" height="8.58"/>
    <rect x="666.82" y="255.27" width="4.73" height="8.58"/>
    <rect x="516.44" y="255.27" width="17.27" height="8.58"/>
    <rect x="604.56" y="255.27" width="62.26" height="8.58"/>
    <polygon points="595.98 255.27 577.28 255.27 577.28 260.77 568.7 260.77 568.7 255.27 533.72 255.27 533.72 263.85 595.98 263.85 595.98 255.27"/>
    <rect x="18.12" y="398.49" width="15.95" height="8.58"/>
    <rect x="167.18" y="398.49" width="6.05" height="8.58"/>
    <rect x="99.96" y="398.49" width="67.21" height="8.58"/>
    <rect x="34.07" y="398.49" width="57.31" height="8.58"/>
    <rect x="167.18" y="541.82" width="6.05" height="8.58"/>
    <rect x="18.12" y="541.82" width="15.95" height="8.58"/>
    <rect x="34.07" y="541.82" width="61.6" height="8.58"/>
    <rect x="104.25" y="541.82" width="62.92" height="8.58"/>
    <rect x="167.18" y="594.57" width="6.05" height="8.58"/>
    <rect x="18.12" y="594.57" width="15.95" height="8.58"/>
    <rect x="34.07" y="594.57" width="61.6" height="8.58"/>
    <rect x="104.25" y="594.57" width="62.92" height="8.58"/>
    <rect x="167.18" y="439.08" width="6.05" height="8.58"/>
    <rect x="99.96" y="439.08" width="67.21" height="8.58"/>
    <rect x="361.34" y="389.91" width="5.33" height="8.58"/>
    <rect x="499.78" y="389.91" width="16.67" height="8.58"/>
    <rect x="462.19" y="389.91" width="37.59" height="8.58"/>
    <rect x="407.64" y="389.91" width="45.97" height="8.58"/>
    <rect x="366.67" y="389.91" width="32.39" height="8.58"/>
    <rect x="335.49" y="550.4" width="11" height="8.58"/>
    <rect x="191.38" y="550.4" width="11" height="8.58"/>
    <polygon points="264.64 557.33 273.22 557.33 273.22 558.98 335.49 558.98 335.49 550.4 297.95 550.4 297.95 552.77 289.37 552.77 289.37 550.4 244.48 550.4 244.48 552.77 235.9 552.77 235.9 550.4 202.38 550.4 202.38 558.98 264.64 558.98 264.64 557.33"/>
    <rect x="352.76" y="541.82" width="13.91" height="8.58"/>
    <rect x="499.78" y="541.82" width="8.09" height="8.58"/>
    <rect x="366.67" y="541.82" width="48.66" height="8.58"/>
    <rect x="423.91" y="541.82" width="47.21" height="8.58"/>
    <rect x="479.7" y="541.82" width="20.08" height="8.58"/>
    <rect x="666.82" y="418.1" width="4.73" height="8.58"/>
    <rect x="516.44" y="418.1" width="17.27" height="8.58"/>
    <rect x="533.72" y="418.1" width="34.98" height="8.58"/>
    <rect x="629.42" y="418.1" width="37.4" height="8.58"/>
    <rect x="577.28" y="418.1" width="43.56" height="8.58"/>
    <rect x="666.82" y="553.04" width="16.72" height="8.58"/>
    <rect x="528.44" y="553.04" width="5.28" height="8.58"/>
    <rect x="533.72" y="553.04" width="30.69" height="8.58"/>
    <rect x="572.99" y="553.04" width="93.83" height="8.58"/>
    <rect x="666.82" y="598.81" width="8.91" height="8.58"/>
    <rect x="528.44" y="598.81" width="5.28" height="8.58"/>
    <rect x="572.99" y="598.81" width="93.83" height="8.58"/>
    <rect x="533.72" y="598.81" width="30.69" height="8.58"/>
    <rect x="365.96" y="291.27" width=".71" height="8.58"/>
    <polygon points="399.06 293.21 407.64 293.21 407.64 299.85 445.03 299.85 445.03 291.27 366.67 291.27 366.67 299.85 399.06 299.85 399.06 293.21"/>
    <rect x="324.27" y="443.37" width="42.4" height="8.58"/>
    <rect x="366.67" y="443.37" width="32.39" height="8.58"/>
    <rect x="340.55" y="603.1" width="26.13" height="8.58"/>
    <rect x="366.67" y="603.1" width="48.66" height="8.58"/>
    <rect x="335.49" y="63.52" width="17.82" height="8.58"/>
    <rect x="198.2" y="63.52" width="4.18" height="8.58"/>
    <rect x="202.38" y="63.52" width="44.28" height="8.58"/>
    <rect x="255.24" y="63.52" width="80.25" height="8.58"/>
    <rect x="198.2" y="227.87" width="4.18" height="8.58"/>
    <rect x="335.49" y="227.87" width="17.82" height="8.58"/>
    <rect x="306.42" y="227.87" width="29.07" height="8.58"/>
    <rect x="202.38" y="227.87" width="29.46" height="8.58"/>
    <rect x="240.42" y="227.87" width="57.42" height="8.58"/>
    <rect x="361.34" y="72.43" width="5.33" height="8.58"/>
    <rect x="499.78" y="72.43" width="16.67" height="8.58"/>
    <rect x="438.89" y="72.43" width="60.89" height="8.58"/>
    <rect x="366.67" y="72.43" width="63.64" height="8.58"/>
    <rect x="361.34" y="121.6" width="5.33" height="8.58"/>
    <rect x="499.78" y="121.6" width="16.67" height="8.58"/>
    <rect x="438.89" y="121.6" width="60.89" height="8.58"/>
    <rect x="366.67" y="121.6" width="63.64" height="8.58"/>
    <rect x="528.44" y="92.45" width="5.28" height="8.58"/>
    <rect x="666.82" y="92.45" width="16.72" height="8.58"/>
    <rect x="625.13" y="92.45" width="41.69" height="8.58"/>
    <polygon points="572.99 96.74 581.57 96.74 581.57 101.03 616.55 101.03 616.55 92.45 533.72 92.45 533.72 101.03 572.99 101.03 572.99 96.74"/>
    <rect x="335.49" y="121.6" width="17.82" height="8.58"/>
    <rect x="255.24" y="121.6" width="80.25" height="8.58"/>
    <rect x="240.42" y="270.74" width="57.42" height="8.58"/>
    <rect x="306.42" y="270.74" width="29.07" height="8.58"/>
    <rect x="250.95" y="385.62" width="36.35" height="8.58"/>
    <rect x="184.95" y="385.62" width="17.43" height="8.58"/>
    <rect x="202.38" y="385.62" width="48.57" height="8.58"/>
    <rect x="184.95" y="439.08" width="17.43" height="8.58"/>
    <rect x="250.95" y="439.08" width="36.35" height="8.58"/>
    <rect x="202.38" y="439.08" width="48.57" height="8.58"/>
    <rect x="289.37" y="495.31" width="8.58" height="17.56"/>
    <rect x="289.37" y="512.86" width="8.58" height="37.54"/>
    <rect x="289.37" y="550.4" width="8.58" height="2.36"/>
    <rect x="264.64" y="639.01" width="8.58" height="9.96"/>
    <rect x="264.64" y="558.98" width="8.58" height="80.03"/>
    <rect x="264.64" y="557.33" width="8.58" height="1.65"/>
    <rect x="235.9" y="495.31" width="8.58" height="17.56"/>
    <rect x="235.9" y="512.86" width="8.58" height="37.54"/>
    <rect x="235.9" y="550.4" width="8.58" height="2.36"/>
    <rect x="82.36" y="23.82" width="8.58" height="14.48"/>
    <rect x="82.36" y="164.45" width="8.58" height="14.48"/>
    <rect x="82.36" y="38.3" width="8.58" height="38.42"/>
    <rect x="82.36" y="85.3" width="8.58" height="79.15"/>
    <rect x="82.36" y="76.72" width="8.58" height="8.58"/>
    <rect x="117.35" y="188.83" width="8.58" height="7.66"/>
    <rect x="117.35" y="322.64" width="8.58" height="21.3"/>
    <rect x="117.35" y="196.49" width="8.58" height="65.6"/>
    <rect x="117.35" y="270.67" width="8.58" height="51.96"/>
    <rect x="117.35" y="262.09" width="8.58" height="8.58"/>
    <rect x="60.58" y="182.01" width="8.58" height="14.48"/>
    <rect x="60.58" y="322.64" width="8.58" height="14.48"/>
    <rect x="60.58" y="196.49" width="8.58" height="65.6"/>
    <rect x="60.58" y="270.67" width="8.58" height="51.96"/>
    <rect x="60.58" y="262.09" width="8.58" height="8.58"/>
    <rect x="91.38" y="334.79" width="8.58" height="19.88"/>
    <rect x="91.38" y="480.83" width="8.58" height="9.08"/>
    <rect x="91.38" y="354.68" width="8.58" height="43.81"/>
    <polygon points="91.6 447.66 91.6 439.08 99.96 439.08 99.96 407.07 91.38 407.07 91.38 480.83 99.96 480.83 99.96 447.66 91.6 447.66"/>
    <rect x="91.38" y="398.49" width="8.58" height="8.58"/>
    <rect x="91.6" y="439.08" width="8.36" height="8.58"/>
    <rect x="95.67" y="495.31" width="8.58" height="17.56"/>
    <rect x="95.67" y="639.01" width="8.58" height="11.4"/>
    <rect x="95.67" y="512.86" width="8.58" height="28.96"/>
    <rect x="95.67" y="603.15" width="8.58" height="35.86"/>
    <rect x="95.67" y="550.4" width="8.58" height="44.17"/>
    <rect x="95.67" y="541.82" width="8.58" height="8.58"/>
    <rect x="95.67" y="594.57" width="8.58" height="8.58"/>
    <rect x="246.66" y="164.45" width="8.58" height="14.48"/>
    <rect x="246.66" y="23.82" width="8.58" height="14.48"/>
    <rect x="246.66" y="38.3" width="8.58" height="25.22"/>
    <polygon points="250.95 130.18 250.95 121.6 255.24 121.6 255.24 72.1 246.66 72.1 246.66 164.45 255.24 164.45 255.24 130.18 250.95 130.18"/>
    <rect x="246.66" y="63.52" width="8.58" height="8.58"/>
    <rect x="250.95" y="121.6" width="4.29" height="8.58"/>
    <rect x="297.84" y="322.64" width="8.58" height="12.16"/>
    <rect x="297.84" y="179.69" width="8.58" height="16.8"/>
    <rect x="297.84" y="279.32" width="8.58" height="43.31"/>
    <rect x="297.84" y="196.49" width="8.58" height="31.38"/>
    <rect x="297.84" y="236.45" width="8.58" height="34.29"/>
    <rect x="297.84" y="227.87" width="8.58" height="8.58"/>
    <rect x="297.84" y="270.74" width="8.58" height="8.58"/>
    <rect x="445.03" y="322.64" width="8.58" height="11.06"/>
    <rect x="445.03" y="178.59" width="8.58" height="17.9"/>
    <polygon points="453.61 236.45 445.03 236.45 445.03 291.27 449.32 291.27 449.32 299.85 445.03 299.85 445.03 322.64 453.61 322.64 453.61 236.45"/>
    <rect x="445.03" y="196.49" width="8.58" height="31.38"/>
    <rect x="445.03" y="227.87" width="8.58" height="8.58"/>
    <rect x="445.03" y="291.27" width="4.29" height="8.58"/>
    <rect x="568.7" y="480.83" width="8.58" height="11.4"/>
    <rect x="568.7" y="337.12" width="8.58" height="17.56"/>
    <rect x="568.7" y="426.68" width="8.58" height="54.15"/>
    <rect x="568.7" y="354.68" width="8.58" height="63.42"/>
    <rect x="568.7" y="418.1" width="8.58" height="8.58"/>
    <rect x="564.41" y="639.01" width="8.58" height="22.8"/>
    <rect x="564.41" y="506.7" width="8.58" height="6.16"/>
    <rect x="564.41" y="607.39" width="8.58" height="31.63"/>
    <rect x="564.41" y="561.62" width="8.58" height="37.18"/>
    <rect x="564.41" y="512.86" width="8.58" height="40.18"/>
    <rect x="564.41" y="553.04" width="8.58" height="8.58"/>
    <rect x="564.41" y="598.81" width="8.58" height="8.58"/>
    <rect x="620.84" y="337.12" width="8.58" height="17.56"/>
    <rect x="620.84" y="480.83" width="8.58" height="11.4"/>
    <rect x="620.84" y="354.68" width="8.58" height="63.42"/>
    <rect x="620.84" y="426.68" width="8.58" height="54.15"/>
    <rect x="620.84" y="418.1" width="8.58" height="8.58"/>
    <rect x="399.06" y="480.83" width="8.58" height="28.96"/>
    <rect x="399.06" y="398.49" width="8.58" height="44.88"/>
    <rect x="399.06" y="354.68" width="8.58" height="35.23"/>
    <rect x="399.06" y="451.95" width="8.58" height="28.88"/>
    <rect x="399.06" y="389.91" width="8.58" height="8.58"/>
    <rect x="399.06" y="443.37" width="8.58" height="8.58"/>
    <rect x="471.12" y="498.39" width="8.58" height="14.48"/>
    <rect x="471.12" y="639.01" width="8.58" height="14.48"/>
    <rect x="471.12" y="512.86" width="8.58" height="28.96"/>
    <rect x="471.12" y="550.4" width="8.58" height="88.61"/>
    <rect x="471.12" y="541.82" width="8.58" height="8.58"/>
    <rect x="453.61" y="340.2" width="8.58" height="14.48"/>
    <rect x="453.61" y="480.83" width="8.58" height="14.48"/>
    <rect x="453.61" y="354.68" width="8.58" height="35.23"/>
    <rect x="453.61" y="398.49" width="8.58" height="82.34"/>
    <rect x="453.61" y="389.91" width="8.58" height="8.58"/>
    <rect x="415.33" y="639.01" width="8.58" height="4.63"/>
    <rect x="415.33" y="488.54" width="8.58" height="24.32"/>
    <rect x="415.33" y="550.4" width="8.58" height="52.69"/>
    <rect x="415.33" y="512.86" width="8.58" height="28.96"/>
    <rect x="415.33" y="611.68" width="8.58" height="27.34"/>
    <rect x="415.33" y="541.82" width="8.58" height="8.58"/>
    <rect x="415.33" y="603.1" width="8.58" height="8.58"/>
    <rect x="399.06" y="322.64" width="8.58" height="17.01"/>
    <rect x="399.06" y="299.85" width="8.58" height="22.78"/>
    <rect x="399.06" y="293.21" width="8.58" height="6.64"/>
    <rect x="231.84" y="174.3" width="8.58" height="22.19"/>
    <rect x="231.84" y="322.64" width="8.58" height="6.77"/>
    <rect x="231.84" y="196.49" width="8.58" height="31.38"/>
    <polygon points="233.13 279.32 233.13 270.74 240.42 270.74 240.42 236.45 231.84 236.45 231.84 322.64 240.42 322.64 240.42 279.32 233.13 279.32"/>
    <rect x="231.84" y="227.87" width="8.58" height="8.58"/>
    <rect x="233.13" y="270.74" width="7.29" height="8.58"/>
    <rect x="430.31" y="19.19" width="8.58" height="19.11"/>
    <rect x="430.31" y="164.45" width="8.58" height="9.85"/>
    <rect x="430.31" y="38.3" width="8.58" height="34.13"/>
    <rect x="430.31" y="130.18" width="8.58" height="34.27"/>
    <rect x="430.31" y="81.01" width="8.58" height="40.59"/>
    <rect x="430.31" y="72.43" width="8.58" height="8.58"/>
    <rect x="430.31" y="121.6" width="8.58" height="8.58"/>
    <rect x="616.55" y="23.48" width="8.58" height="14.82"/>
    <rect x="616.55" y="164.45" width="8.58" height="14.14"/>
    <rect x="616.55" y="101.03" width="8.58" height="63.42"/>
    <rect x="616.55" y="38.3" width="8.58" height="54.15"/>
    <rect x="616.55" y="92.45" width="8.58" height="8.58"/>
    <rect x="595.98" y="322.64" width="8.58" height="14.48"/>
    <rect x="595.98" y="182.01" width="8.58" height="14.48"/>
    <rect x="595.98" y="196.49" width="8.58" height="58.78"/>
    <rect x="595.98" y="263.85" width="8.58" height="58.78"/>
    <rect x="595.98" y="255.27" width="8.58" height="8.58"/>
    <polygon points="572.99 178.59 577.28 178.59 577.28 178.93 581.57 178.93 581.57 164.45 572.99 164.45 572.99 178.59"/>
    <rect x="572.99" y="101.03" width="8.58" height="63.42"/>
    <rect x="572.99" y="96.74" width="8.58" height="4.29"/>
    <polygon points="572.99 178.59 568.7 178.59 568.7 196.49 577.28 196.49 577.28 178.93 572.99 178.93 572.99 178.59"/>
    <rect x="568.7" y="196.49" width="8.58" height="58.78"/>
    <rect x="568.7" y="255.27" width="8.58" height="5.5"/>
    <rect x="572.99" y="178.59" width="4.29" height=".34"/>
  </g>
</svg>